<?xml version="1.0" encoding="utf-8"?>
<svg viewBox="0 0 500 400" xmlns="http://www.w3.org/2000/svg">
  <defs>
    <radialGradient gradientUnits="userSpaceOnUse" cx="253.687" cy="128.74" r="5.2" id="gradient-2" gradientTransform="matrix(1.413894, -0.924171, 1.350087, 2.06551, -199.109344, 47.105404)">
      <stop offset="0" style="stop-color: rgb(15, 25, 34);"/>
      <stop offset="1" style="stop-color: rgb(0, 0, 0); stop-opacity: 0;"/>
    </radialGradient>
    <radialGradient gradientUnits="userSpaceOnUse" cx="271.202" cy="133.553" r="38.134" id="gradient-0" gradientTransform="matrix(0.923921, 0.003086, -0.003431, 1.027039, 1.736735, 11.619292)">
      <stop offset="0" style="stop-color: rgb(242, 248, 254);"/>
      <stop offset="0.878" style="stop-color: rgb(222, 239, 250);"/>
      <stop offset="1" style="stop-color: rgb(209, 231, 241);"/>
    </radialGradient>
    <radialGradient gradientUnits="userSpaceOnUse" cx="270.232" cy="161.54" r="5.422" id="gradient-8" gradientTransform="matrix(0.01374, 0.922944, -1.16349, 0.017322, 435.992401, -68.218987)">
      <stop offset="0" style="stop-color: rgb(111, 118, 124);"/>
      <stop offset="0.684" style="stop-color: rgb(60, 67, 72);"/>
      <stop offset="1" style="stop-color: rgb(33, 35, 37);"/>
    </radialGradient>
    <radialGradient gradientUnits="userSpaceOnUse" cx="336.109" cy="78.612" r="3.737" id="gradient-1" gradientTransform="matrix(0.751825, -0.072507, 0.095996, 0.995382, 72.99894, 25.421843)">
      <stop offset="0" style="stop-color: rgb(255, 255, 255);"/>
      <stop offset="0.359" style="stop-color: rgb(60, 62, 65);"/>
      <stop offset="1" style=""/>
    </radialGradient>
    <linearGradient gradientUnits="userSpaceOnUse" x1="338.81" y1="71.798" x2="338.81" y2="83.901" id="gradient-10" gradientTransform="matrix(0.952414, -0.304806, 0.303831, 0.949361, -11.587, 108.236992)">
      <stop offset="0" style="stop-color: rgb(0, 0, 0); stop-opacity: 0.29;"/>
      <stop offset="0.229" style="stop-color: rgb(0, 0, 0);"/>
      <stop offset="0.497" style="stop-color: rgb(0, 0, 0);"/>
      <stop offset="0.791" style="stop-color: rgb(0, 0, 0);"/>
      <stop offset="1" style="stop-color: rgb(0, 0, 0); stop-opacity: 0.29;"/>
    </linearGradient>
    <radialGradient gradientUnits="userSpaceOnUse" cx="335.623" cy="77.865" r="4.154" id="gradient-11" gradientTransform="matrix(-0.663268, -1.290179, 1.101055, -0.566045, 472.142578, 555.605713)">
      <stop offset="0" style="stop-color: rgb(0, 0, 0); stop-opacity: 0;"/>
      <stop offset="0.612" style="stop-color: rgb(0, 0, 0); stop-opacity: 0.86;"/>
      <stop offset="1" style="stop-color: rgb(0, 0, 0); stop-opacity: 0;"/>
    </radialGradient>
    <radialGradient gradientUnits="userSpaceOnUse" cx="335.623" cy="77.865" r="4.154" id="gradient-4" gradientTransform="matrix(-0.663268, -1.290179, 1.101055, -0.566045, 472.142578, 555.605713)">
      <stop offset="0" style="stop-color: rgb(0, 0, 0); stop-opacity: 0;"/>
      <stop offset="0.612" style="stop-color: rgb(0, 0, 0); stop-opacity: 0.86;"/>
      <stop offset="1" style="stop-color: rgb(0, 0, 0); stop-opacity: 0;"/>
    </radialGradient>
    <radialGradient gradientUnits="userSpaceOnUse" cx="336.109" cy="78.612" r="3.737" id="gradient-7" gradientTransform="matrix(0.751825, -0.072507, 0.095996, 0.995382, 72.99894, 25.421843)">
      <stop offset="0" style="stop-color: rgb(255, 255, 255);"/>
      <stop offset="0.359" style="stop-color: rgb(60, 62, 65);"/>
      <stop offset="1" style="stop-color: rgba(0, 0, 0, 1)"/>
    </radialGradient>
    <radialGradient gradientUnits="userSpaceOnUse" cx="253.687" cy="128.74" r="5.2" id="gradient-12" gradientTransform="matrix(1.413894, -0.924171, 1.350087, 2.06551, -199.109344, 47.105404)">
      <stop offset="0" style="stop-color: rgb(15, 25, 34);"/>
      <stop offset="1" style="stop-color: rgb(0, 0, 0); stop-opacity: 0;"/>
    </radialGradient>
    <linearGradient gradientUnits="userSpaceOnUse" x1="338.81" y1="71.798" x2="338.81" y2="83.901" id="gradient-13" gradientTransform="matrix(0.952414, -0.304806, 0.303831, 0.949361, -11.587, 108.236992)">
      <stop offset="0" style="stop-color: rgb(0, 0, 0); stop-opacity: 0.29;"/>
      <stop offset="0.229" style="stop-color: rgb(0, 0, 0);"/>
      <stop offset="0.497" style="stop-color: rgb(0, 0, 0);"/>
      <stop offset="0.791" style="stop-color: rgb(0, 0, 0);"/>
      <stop offset="1" style="stop-color: rgb(0, 0, 0); stop-opacity: 0.29;"/>
    </linearGradient>
    <radialGradient gradientUnits="userSpaceOnUse" cx="441.297" cy="174.99" r="115.994" id="gradient-3" gradientTransform="matrix(0.728172, -0.18355, 0.111585, 0.442675, 101.351898, 176.08934)">
      <stop offset="0" style="stop-color: rgba(242, 248, 254, 1)"/>
      <stop offset="0.9" style="stop-color: rgb(222, 239, 250);"/>
      <stop offset="1" style="stop-color: rgb(209, 231, 241);"/>
    </radialGradient>
    <radialGradient gradientUnits="userSpaceOnUse" cx="539.005" cy="188.98" r="115.994" id="gradient-5" gradientTransform="matrix(0.70533, -0.032156, 0.014784, 0.324336, 120.026527, 126.644592)">
      <stop offset="0" style="stop-color: rgb(242, 248, 254); stop-opacity: 0;"/>
      <stop offset="0.676" style="stop-color: rgb(222, 239, 250);"/>
      <stop offset="1" style="stop-color: rgb(209, 231, 241);"/>
    </radialGradient>
    <radialGradient gradientUnits="userSpaceOnUse" cx="441.297" cy="174.99" r="115.994" id="gradient-6" gradientTransform="matrix(0.728172, 0.18355, 0.111585, -0.442675, -182.076477, 166.341721)">
      <stop offset="0" style="stop-color: rgba(242, 248, 254, 1)"/>
      <stop offset="0.9" style="stop-color: rgb(222, 239, 250);"/>
      <stop offset="1" style="stop-color: rgb(209, 231, 241);"/>
    </radialGradient>
    <radialGradient gradientUnits="userSpaceOnUse" cx="539.005" cy="188.98" r="115.994" id="gradient-14" gradientTransform="matrix(0.70533, 0.032156, 0.014784, -0.324336, -278.296844, 209.759033)">
      <stop offset="0" style="stop-color: rgb(242, 248, 254); stop-opacity: 0;"/>
      <stop offset="0.676" style="stop-color: rgb(222, 239, 250);"/>
      <stop offset="1" style="stop-color: rgb(209, 231, 241);"/>
    </radialGradient>
    <radialGradient gradientUnits="userSpaceOnUse" cx="249.857" cy="285.926" r="35.819" id="gradient-18" gradientTransform="matrix(0, -1.718588, 1.000014, 0, -34.325442, 684.235084)">
      <stop offset="0" style="stop-color: rgba(242, 248, 254, 1)"/>
      <stop offset="0.763" style="stop-color: rgb(222, 239, 250);"/>
      <stop offset="1" style="stop-color: rgb(209, 231, 241);"/>
    </radialGradient>
    <radialGradient gradientUnits="userSpaceOnUse" cx="250.841" cy="372.163" r="48.544" id="gradient-15" gradientTransform="matrix(1.025808, 0, 0, 1.216722, -5.755786, -79.315811)">
      <stop offset="0" style="stop-color: rgb(242, 248, 254);"/>
      <stop offset="0.829" style="stop-color: rgb(222, 239, 250);"/>
      <stop offset="1" style="stop-color: rgb(209, 231, 241);"/>
    </radialGradient>
    <radialGradient gradientUnits="userSpaceOnUse" cx="240.865" cy="215.893" r="5.047" id="gradient-16" gradientTransform="matrix(0.198219, 1.618323, -0.939237, 0.115043, 395.998298, -201.88367)">
      <stop offset="0" style="stop-color: rgb(111, 118, 124);"/>
      <stop offset="0.658" style="stop-color: rgb(46, 51, 55);"/>
      <stop offset="1" style="stop-color: rgb(33, 35, 37);"/>
    </radialGradient>
    <radialGradient gradientUnits="userSpaceOnUse" cx="232.135" cy="219.854" r="3.567" id="gradient-17" gradientTransform="matrix(0.209956, 1.928949, -0.976492, 0.106286, 398.047905, -251.512999)">
      <stop offset="0" style="stop-color: rgb(111, 118, 124);"/>
      <stop offset="0.487" style="stop-color: rgb(60, 67, 72);"/>
      <stop offset="1" style="stop-color: rgb(33, 35, 37);"/>
    </radialGradient>
    <radialGradient gradientUnits="userSpaceOnUse" cx="250.981" cy="218.14" r="3.738" id="gradient-19" gradientTransform="matrix(-0.860513, 1.161564, -0.725119, -0.537184, 625.306094, 44.041345)">
      <stop offset="0" style="stop-color: rgb(111, 118, 124);"/>
      <stop offset="0.546" style="stop-color: rgb(60, 67, 72);"/>
      <stop offset="1" style="stop-color: rgb(33, 35, 37);"/>
    </radialGradient>
    <radialGradient gradientUnits="userSpaceOnUse" cx="242.06" cy="233.456" r="3.493" id="gradient-20" gradientTransform="matrix(-0.072215, 2.243085, -0.831725, -0.026777, 455.014246, -304.655773)">
      <stop offset="0" style="stop-color: rgb(111, 118, 124);"/>
      <stop offset="0.681" style="stop-color: rgb(60, 67, 72);"/>
      <stop offset="1" style="stop-color: rgb(33, 35, 37);"/>
    </radialGradient>
    <radialGradient gradientUnits="userSpaceOnUse" cx="241.326" cy="221.641" r="12.442" id="gradient-21" gradientTransform="matrix(1.169135, -0.120305, 0.102361, 0.994747, -63.547487, 30.207551)">
      <stop offset="0" style="stop-color: rgb(60, 67, 72);"/>
      <stop offset="0.641" style="stop-color: rgb(33, 35, 37);"/>
      <stop offset="1" style="stop-color: rgb(33, 35, 37);"/>
    </radialGradient>
    <radialGradient gradientUnits="userSpaceOnUse" cx="241.326" cy="221.641" r="12.442" id="gradient-22" gradientTransform="matrix(1.169135, -0.120305, 0.102361, 0.994747, -63.547487, 30.207551)">
      <stop offset="0" style="stop-color: rgb(60, 67, 72);"/>
      <stop offset="0.641" style="stop-color: rgb(33, 35, 37);"/>
      <stop offset="1" style="stop-color: rgb(33, 35, 37);"/>
    </radialGradient>
    <radialGradient gradientUnits="userSpaceOnUse" cx="240.865" cy="215.893" r="5.047" id="gradient-23" gradientTransform="matrix(0.198219, 1.618323, -0.939237, 0.115043, 395.998298, -201.88367)">
      <stop offset="0" style="stop-color: rgb(111, 118, 124);"/>
      <stop offset="0.658" style="stop-color: rgb(46, 51, 55);"/>
      <stop offset="1" style="stop-color: rgb(33, 35, 37);"/>
    </radialGradient>
    <radialGradient gradientUnits="userSpaceOnUse" cx="232.135" cy="219.854" r="3.567" id="gradient-24" gradientTransform="matrix(0.209956, 1.928949, -0.976492, 0.106286, 398.047905, -251.512999)">
      <stop offset="0" style="stop-color: rgb(111, 118, 124);"/>
      <stop offset="0.487" style="stop-color: rgb(60, 67, 72);"/>
      <stop offset="1" style="stop-color: rgb(33, 35, 37);"/>
    </radialGradient>
    <radialGradient gradientUnits="userSpaceOnUse" cx="250.981" cy="218.14" r="3.738" id="gradient-25" gradientTransform="matrix(-0.860513, 1.161564, -0.725119, -0.537184, 625.306094, 44.041345)">
      <stop offset="0" style="stop-color: rgb(111, 118, 124);"/>
      <stop offset="0.546" style="stop-color: rgb(60, 67, 72);"/>
      <stop offset="1" style="stop-color: rgb(33, 35, 37);"/>
    </radialGradient>
    <radialGradient gradientUnits="userSpaceOnUse" cx="242.06" cy="233.456" r="3.493" id="gradient-26" gradientTransform="matrix(-0.072215, 2.243085, -0.831725, -0.026777, 455.014246, -304.655773)">
      <stop offset="0" style="stop-color: rgb(111, 118, 124);"/>
      <stop offset="0.681" style="stop-color: rgb(60, 67, 72);"/>
      <stop offset="1" style="stop-color: rgb(33, 35, 37);"/>
    </radialGradient>
  </defs>
  <g style="" transform="matrix(1, 0, 0, 1, -1.792332, -33)">
    <title>cloud</title>
    <path stroke-width="0" d="M 450.422 243.172 C 452.908 251.391 453.551 261.149 452.387 269.691 C 451.232 278.169 447.293 287.676 443.547 294.246 C 443.22 294.82 442.894 295.374 442.567 295.909 C 442.567 296.01 442.566 296.11 442.565 296.21 C 442.49 304.028 440.938 311.583 437.654 318.8 C 434.139 326.525 428.118 335.076 421.448 340.899 C 414.836 346.672 406.337 351.367 397.876 353.668 C 395.895 354.206 393.788 354.614 391.62 354.908 C 391.577 354.986 391.534 355.064 391.491 355.141 C 387.311 362.637 380.998 369.936 374.303 375.276 C 367.71 380.535 359.725 384.769 351.713 387.062 C 343.684 389.36 334.514 390.003 326.176 389.026 C 318.64 388.144 310.765 385.829 303.853 382.351 C 300.905 386.017 297.764 389.368 294.746 391.973 C 287.937 397.848 280.525 401.437 272.156 403.759 C 263.278 406.222 251.886 406.99 242.69 405.724 C 233.938 404.518 225.216 401.058 218.136 396.884 C 217.686 396.619 217.24 396.346 216.798 396.066 C 215.933 396.363 215.068 396.636 214.207 396.884 C 207.568 398.796 200.843 399.627 193.581 398.848 C 185.542 397.986 175.423 395.131 168.044 390.991 C 164.388 388.939 160.936 386.301 157.802 383.405 C 153.935 383.664 150.042 383.593 146.436 383.133 C 138.628 382.138 130.516 379.175 123.846 375.276 C 117.284 371.44 111.281 366.207 106.658 360.052 C 101.871 353.68 97.769 344.938 95.854 337.462 C 95.395 335.672 95.034 333.906 94.77 332.148 C 90.113 330.703 85.769 328.656 81.612 326.167 C 74.891 322.141 67.899 315.385 63.442 309.961 C 59.689 305.393 57.633 301.807 55.584 296.21 C 53.124 289.487 50.281 280.426 50.673 271.655 C 51.11 261.903 54.911 248.762 59.513 240.225 C 63.606 232.634 68.86 226.943 75.719 222.055 C 75.911 221.918 76.106 221.781 76.302 221.645 C 73.74 216.814 71.554 211.606 70.317 206.831 C 68.159 198.499 68.1 189.297 69.335 181.294 C 70.519 173.623 73.57 166.077 77.192 159.686 C 80.681 153.531 84.171 148.257 90.452 143.48 C 93.28 141.329 96.863 139.04 100.784 136.904 C 101.462 130.268 103.434 123.446 106.658 117.452 C 110.025 111.192 114.393 104.917 120.9 100.264 C 128.39 94.908 141.196 89.714 150.365 88.478 C 155.192 87.827 159.71 87.953 164.15 88.8 C 164.3 88.528 164.452 88.258 164.607 87.987 C 166.88 84.012 169.539 79.957 172.816 76.266 C 175.288 73.19 178.142 70.425 181.795 67.852 C 189.492 62.431 201.84 56.523 212.243 55.084 C 222.474 53.668 234.226 55.29 243.673 59.012 C 252.841 62.626 261.997 69.452 268.327 76.728 C 275.66 72.412 284.221 68.35 291.105 66.87 C 301.148 64.712 310.986 65.329 320.571 68.834 C 331.174 72.712 344.643 83.283 351.509 90.933 C 352.008 91.489 352.481 92.047 352.929 92.605 C 358.127 93.332 363.18 94.615 367.428 96.335 C 375.786 99.72 383.151 106.306 388.545 112.541 C 393.58 118.363 397.191 124.812 399.349 132.185 C 400.506 136.138 401.285 140.752 401.629 145.391 C 406.217 146.303 410.642 147.67 414.573 149.373 C 423.474 153.23 431.934 160.587 437.654 167.544 C 442.944 173.977 446.34 181.686 448.458 189.152 C 450.523 196.431 451.211 204.272 450.422 211.742 C 449.745 218.155 447.992 224.938 445.195 231.041 C 447.399 234.926 449.172 239.038 450.422 243.172 Z" style="stroke-width: 2px; fill: rgb(50, 63, 78);">
      <title>cloud_back_silhouette</title>
    </path>
  </g>
  <g style="" transform="matrix(1, 0, 0, 1, -1.560483, -33)">
    <title>dove</title>
    <path style="stroke: rgb(183, 202, 212); fill: url(#gradient-15);" d="M 270.392 307.064 C 275.894 313.91 285.8 337.261 289.671 344.425 C 293.869 352.194 296.302 362.124 298.116 370.928 C 299.762 378.918 301.408 386.027 298.542 390.698 C 296.45 394.107 288.92 389.978 284.968 390.594 C 279.087 391.51 279.669 393.623 272.554 394.003 C 264.892 394.412 265.668 392.085 258.035 392.733 C 257.381 392.788 253.663 394.619 251.56 394.576 C 249.458 394.619 245.74 392.788 245.086 392.733 C 237.453 392.085 238.229 394.412 230.567 394.003 C 223.452 393.623 224.034 391.51 218.153 390.594 C 214.201 389.978 206.671 394.107 204.579 390.698 C 201.713 386.027 203.359 378.918 205.005 370.928 C 206.819 362.124 209.252 352.194 213.45 344.425 C 217.321 337.261 227.227 313.91 232.729 307.064 L 270.392 307.064 Z">
      <title>tail</title>
    </path>
    <g transform="matrix(0.956244, 0, 0, 0.956244, -87.811249, 46.276672)" style="">
      <title>wings</title>
      <g transform="matrix(0.965926, 0.258819, -0.258819, 0.965926, 56.584087, -77.4795)">
        <title>left_wing</title>
        <path style="stroke-opacity: 0.5; stroke-width: 1.04576px; fill: url(#gradient-6);" d="M 97.36 193.532 C 103.959 202.415 111.484 208.984 120.89 213.692 C 137.485 221.997 149.361 227.856 174.525 226.307 C 188.665 225.438 210.242 218.533 218.541 215.021 C 227.131 211.387 237.388 208.032 247.536 205.394 C 255.889 203.223 264.946 200.156 275.658 198.092 C 283.682 196.546 292.567 194.619 301.598 193.487 C 310.714 192.343 328.484 189.577 329.165 180.834 C 329.995 170.167 301.104 164.383 294.028 161.953 C 285.458 159.011 279.893 158.019 267.97 154.298 C 257.961 151.176 248.45 149.947 236.109 146.559 C 225.704 143.702 222.095 144.333 212.089 138.836 C 203.684 134.218 197.322 129.741 189.968 126.157 C 181.687 122.121 177.918 121.141 165.78 118.049 C 153.643 114.957 141.735 115.917 131.2 116.422 C 122.014 116.861 112.771 120.495 97.194 124.069" transform="matrix(-1, 0, 0, -1, 426.376526, 342.430443)">
          <title>left_wing</title>
        </path>
        <path style="stroke-opacity: 0.5; stroke-width: 1.04576px; fill: url(#gradient-14);" d="M 118.954 203.594 C 123.429 202.151 128.046 200.745 132.641 199.367 C 140.908 196.888 150.051 194.129 160.763 192.065 C 168.787 190.519 177.672 188.592 186.703 187.46 C 195.819 186.316 213.589 183.55 214.27 174.807 C 215.1 164.14 186.209 158.356 179.133 155.926 C 170.563 152.984 164.998 151.992 153.075 148.271 C 143.066 145.149 133.555 143.92 121.214 140.532 C 110.809 137.675 107.2 138.306 97.194 132.809" transform="matrix(-1, 0, 0, -1, 311.481537, 336.403)">
          <title>left_wing_tip_colour</title>
        </path>
        <path style="stroke-width: 1.04576px; fill: none; stroke: rgb(183, 202, 212);" d="M 97.36 193.532 C 103.959 202.415 111.484 208.984 120.89 213.692 C 137.485 221.997 149.361 227.856 174.525 226.307 C 188.665 225.438 210.242 218.533 218.541 215.021 C 227.131 211.387 237.388 208.032 247.536 205.394 C 255.889 203.223 264.946 200.156 275.658 198.092 C 283.682 196.546 292.567 194.619 301.598 193.487 C 310.714 192.343 328.484 189.577 329.165 180.834 C 329.995 170.167 301.104 164.383 294.028 161.953 C 285.458 159.011 279.893 158.019 267.97 154.298 C 257.961 151.176 248.45 149.947 236.109 146.559 C 225.704 143.702 222.095 144.333 212.089 138.836 C 203.684 134.218 197.322 129.741 189.968 126.157 C 181.687 122.121 177.918 121.141 165.78 118.049 C 153.643 114.957 141.735 115.917 131.2 116.422 C 122.014 116.861 112.771 120.495 97.194 124.069" transform="matrix(-1, 0, 0, -1, 426.376526, 342.430443)">
          <title>left_wing_stroke</title>
        </path>
      </g>
      <g transform="matrix(0.965926, -0.258819, 0.258819, 0.965926, -32.398235, 106.231041)">
        <title>right_wing</title>
        <path style="stroke-opacity: 0.5; stroke-width: 1.04576px; fill: url(#gradient-3);" d="M 380.785 148.898 C 387.384 140.015 394.909 133.446 404.315 128.738 C 420.91 120.433 432.786 114.574 457.95 116.123 C 472.09 116.992 493.667 123.897 501.966 127.409 C 510.556 131.043 520.813 134.398 530.961 137.036 C 539.314 139.207 548.371 142.274 559.083 144.338 C 567.107 145.884 575.992 147.811 585.023 148.943 C 594.139 150.087 611.909 152.853 612.59 161.596 C 613.42 172.263 584.529 178.047 577.453 180.477 C 568.883 183.419 563.318 184.411 551.395 188.132 C 541.386 191.254 531.875 192.483 519.534 195.871 C 509.129 198.728 505.52 198.097 495.514 203.594 C 487.109 208.212 480.747 212.689 473.393 216.273 C 465.112 220.309 461.343 221.289 449.205 224.381 C 437.068 227.473 425.16 226.513 414.625 226.008 C 405.439 225.569 396.196 221.935 380.619 218.361">
          <title>right_wing</title>
        </path>
        <path style="stroke-opacity: 0.5; stroke-width: 1.04576px; fill: url(#gradient-5);" d="M 517.274 132.809 C 521.749 134.252 526.366 135.658 530.961 137.036 C 539.228 139.515 548.371 142.274 559.083 144.338 C 567.107 145.884 575.992 147.811 585.023 148.943 C 594.139 150.087 611.909 152.853 612.59 161.596 C 613.42 172.263 584.529 178.047 577.453 180.477 C 568.883 183.419 563.318 184.411 551.395 188.132 C 541.386 191.254 531.875 192.483 519.534 195.871 C 509.129 198.728 505.52 198.097 495.514 203.594">
          <title>right_wing_tip_colour</title>
        </path>
        <path style="stroke-width: 1.04576px; fill: none; stroke: rgb(183, 202, 212);" d="M 380.785 148.898 C 387.384 140.015 394.909 133.446 404.315 128.738 C 420.91 120.433 432.786 114.574 457.95 116.123 C 472.09 116.992 493.667 123.897 501.966 127.409 C 510.556 131.043 520.813 134.398 530.961 137.036 C 539.314 139.207 548.371 142.274 559.083 144.338 C 567.107 145.884 575.992 147.811 585.023 148.943 C 594.139 150.087 611.909 152.853 612.59 161.596 C 613.42 172.263 584.529 178.047 577.453 180.477 C 568.883 183.419 563.318 184.411 551.395 188.132 C 541.386 191.254 531.875 192.483 519.534 195.871 C 509.129 198.728 505.52 198.097 495.514 203.594 C 487.109 208.212 480.747 212.689 473.393 216.273 C 465.112 220.309 461.343 221.289 449.205 224.381 C 437.068 227.473 425.16 226.513 414.625 226.008 C 405.439 225.569 396.196 221.935 380.619 218.361">
          <title>right_wing_stroke</title>
        </path>
      </g>
    </g>
    <g>
      <title>body</title>
      <path style="fill: url(#gradient-18);" d="M 227.919 179.692 C 226.185 187.778 221.557 201.486 219.208 216.706 C 216.001 237.486 215.278 260.68 215.75 272.495 C 216.281 285.788 217.404 296.382 223.122 307.918 C 227.823 317.401 236.29 322.106 239.286 324.305 C 242.566 326.712 246.155 329.975 251.561 329.975 C 256.966 329.975 260.555 326.712 263.835 324.305 C 266.831 322.106 275.298 317.401 279.999 307.918 C 285.717 296.382 286.84 285.788 287.371 272.495 C 287.843 260.68 287.12 237.486 283.913 216.706 C 281.564 201.486 276.936 187.778 275.202 179.692">
        <title>body_and_neck_colour</title>
      </path>
      <path style="stroke: rgb(183, 202, 212); fill: none; stroke-opacity: 0.5;" d="M 215.661 255.048 C 216.003 239.898 217.575 224.565 220.53 210.785 M 287.502 255.048 C 287.16 239.898 285.588 224.565 282.633 210.785">
        <title>body_stroke_inner</title>
      </path>
      <path style="stroke: rgb(183, 202, 212); fill: none; stroke-opacity: 0.5;" d="M 228.047 315.275 C 232.477 320.451 237.154 322.697 239.345 324.305 C 242.625 326.712 246.214 329.975 251.561 329.975 C 256.908 329.975 260.497 326.712 263.777 324.305 C 265.968 322.697 270.645 320.451 275.075 315.275">
        <title>body_stroke_bottom</title>
      </path>
      <path style="stroke: rgb(183, 202, 212); fill: none;" d="M 215.661 255.048 C 215.528 260.925 215.581 266.774 215.809 272.495 C 216.34 285.788 217.463 296.382 223.181 307.918 C 224.444 310.467 226.463 313.416 228.091 315.319 M 287.43 255.004 C 287.563 260.881 287.51 266.73 287.282 272.451 C 286.751 285.744 285.628 296.338 279.91 307.874 C 278.647 310.423 276.628 313.372 275 315.275">
        <title>body_stroke_outer</title>
      </path>
    </g>
    <path style="fill: url(#gradient-0); stroke: rgb(183, 202, 212); stroke-width: 1.5px;" d="M 224.847 189.068 C 222.275 182.662 222.4 184.425 220.24 175.759 C 218.982 170.711 215.247 160.539 215.12 154.259 C 214.92 144.271 215.923 140.512 218.194 133.783 C 220.18 127.898 225.277 120.557 231.321 116.834 C 237.764 112.866 240.951 110.918 251.561 110.747 C 262.17 110.918 265.358 112.866 271.801 116.834 C 277.845 120.557 282.942 127.898 284.928 133.783 C 287.199 140.512 288.202 144.271 288.001 154.259 C 287.875 160.539 284.14 170.711 282.882 175.759 C 280.722 184.425 280.847 182.662 278.275 189.068">
      <title>head</title>
    </path>
    <g transform="matrix(0.956244, 0, 0, 0.956244, -88.709915, 81.276672)" style="">
      <title>eyes</title>
      <g>
        <title>left_eye</title>
        <path style="stroke-width: 0px; stroke: rgb(0, 0, 0); fill: url(#gradient-11); fill-opacity: 0.7;" d="M 333.498 83.458 C 332.365 83.272 330.725 81.858 330.251 80.917 C 329.758 79.938 329.598 79.558 329.457 78.194 C 329.309 76.768 329.512 76.069 330.29 74.96 C 330.921 74.062 331.94 73.845 332.921 73.835 C 333.956 73.824 334.698 74.138 335.412 74.715 C 336.141 75.304 336.315 75.78 337.006 76.732 C 337.444 77.337 337.75 79.195 337.717 80.575 C 337.69 81.655 337.43 83.041 336.653 83.369 C 335.462 83.872 334.887 83.688 333.498 83.458 Z">
          <title>left_eye_shadow</title>
        </path>
        <path d="M 334.718 75.127 C 336.196 75.914 336.584 76.655 336.982 77.371 C 337.38 78.087 337.612 79.537 337.644 80.518 C 337.678 81.564 337.218 82.709 336.157 82.855 C 335.012 83.012 333.77 83.037 332.929 82.434 C 332.062 81.813 331.031 80.815 330.836 79.268 C 330.65 77.797 330.614 76.323 331.987 75.388 C 332.836 74.81 333.296 74.371 334.718 75.127 Z" style="paint-order: fill; fill-rule: nonzero; stroke: url(#gradient-2); stroke-width: 0px; fill: url(#gradient-1);">
          <title>left_eye</title>
        </path>
        <path d="M 333.696 72.94 C 334.317 73.171 335.019 73.616 335.539 74.165 C 336.784 75.48 337.265 76.074 337.843 77.591 C 338.133 78.352 338.267 79.219 338.269 80.124 C 338.27 80.762 338.217 81.533 338.085 82.038 C 337.953 82.543 337.009 84.231 336.852 84.316 C 336.695 84.402 337.431 81.923 337.402 81.52 C 337.367 81.032 337.398 80.59 337.366 80.166 C 337.304 79.323 337.042 78.501 336.783 77.82 C 336.262 76.454 333.075 72.709 333.696 72.94 Z" style="fill: url(#gradient-10);">
          <title>left_eye_stroke</title>
        </path>
      </g>
      <g transform="matrix(-1, 0, 0, 1, 711.681152, 0)">
        <title>right_eye</title>
        <path style="stroke-width: 0px; stroke: rgb(0, 0, 0); fill-opacity: 0.7; fill: url(#gradient-4);" d="M 333.498 83.458 C 332.365 83.272 330.725 81.858 330.251 80.917 C 329.758 79.938 329.598 79.558 329.457 78.194 C 329.309 76.768 329.512 76.069 330.29 74.96 C 330.921 74.062 331.94 73.845 332.921 73.835 C 333.956 73.824 334.698 74.138 335.412 74.715 C 336.141 75.304 336.315 75.78 337.006 76.732 C 337.444 77.337 337.75 79.195 337.717 80.575 C 337.69 81.655 337.43 83.041 336.653 83.369 C 335.462 83.872 334.887 83.688 333.498 83.458 Z">
          <title>right_eye_shadow</title>
        </path>
        <path d="M 334.718 75.127 C 336.196 75.914 336.584 76.655 336.982 77.371 C 337.38 78.087 337.612 79.537 337.644 80.518 C 337.678 81.564 337.218 82.709 336.157 82.855 C 335.012 83.012 333.77 83.037 332.929 82.434 C 332.062 81.813 331.031 80.815 330.836 79.268 C 330.65 77.797 330.614 76.323 331.987 75.388 C 332.836 74.81 333.296 74.371 334.718 75.127 Z" style="paint-order: fill; fill-rule: nonzero; stroke-width: 0px; fill: url(#gradient-7); stroke: url(#gradient-12);">
          <title>right_eye</title>
        </path>
        <path d="M 333.696 72.94 C 334.317 73.171 335.019 73.616 335.539 74.165 C 336.784 75.48 337.265 76.074 337.843 77.591 C 338.133 78.352 338.267 79.219 338.269 80.124 C 338.27 80.762 338.217 81.533 338.085 82.038 C 337.953 82.543 337.009 84.231 336.852 84.316 C 336.695 84.402 337.431 81.923 337.402 81.52 C 337.367 81.032 337.398 80.59 337.366 80.166 C 337.304 79.323 337.042 78.501 336.783 77.82 C 336.262 76.454 333.075 72.709 333.696 72.94 Z" style="fill: url(#gradient-13);">
          <title>right_eye_stroke</title>
        </path>
      </g>
    </g>
    <path d="M 251.704 189.435 C 250.599 189.451 249.516 187.828 248.71 186.653 C 247.82 185.355 246.755 183.688 246.393 182.314 C 246.106 181.219 249.555 179.64 251.701 179.693 C 254.07 179.752 257.013 181.192 256.726 182.286 C 256.364 183.661 255.299 185.327 254.409 186.625 C 253.754 187.58 252.891 189.418 251.704 189.435 Z" style="paint-order: fill; fill-rule: nonzero; fill: url(#gradient-8); stroke: rgb(15, 25, 34); stroke-width: 0.8px;">
      <title>beak</title>
    </path>
    <g transform="matrix(0.956244, 0, 0, 0.956244, -88.672836, 75.276672)" style="">
      <title>claws</title>
      <g transform="matrix(1, 0, 0, 1, 89.041107, 6.78589)">
        <title>left_claw</title>
        <path style="stroke: rgb(0, 0, 0); fill: url(#gradient-21);" d="M 242.092 207.055 C 240.811 205.948 237.589 205.974 237.183 207.482 C 236.922 208.444 235.588 209.208 236.031 211.381 C 236.513 213.75 236.686 215.574 236.306 217.273 C 236.04 218.469 233.923 220.362 232.806 221.484 C 231.486 222.811 231.504 225.859 230.441 227.986 C 230.287 228.291 229.115 231.324 229.538 231.747 C 230.061 232.268 230.78 233.546 232.381 233.364 C 233 233.295 234.991 227.256 235.865 226.139 C 236.636 225.152 237.403 223.05 238.533 223.332 C 239.808 223.651 239.533 226.362 239.61 227.499 C 239.926 232.26 239.067 238.121 240.244 238.6 C 242.098 239.353 244.632 241.173 246.214 238.615 C 246.672 237.878 242.855 222.614 244.811 222.594 C 247.192 222.572 248.198 225.419 249.061 227.234 C 249.949 229.1 250.929 233.438 253.589 231.668 C 255.855 230.162 252.42 220.847 250.03 219.432 C 249.648 219.206 247.453 218.215 245.146 216.715 C 242.589 215.053 244.087 208.778 242.092 207.055 Z" transform="matrix(-1, 0, 0, -1, 483.776367, 446.213928)">
          <title>left_claw_stem</title>
        </path>
        <path style="stroke: rgb(0, 0, 0); fill: url(#gradient-16); stroke-width: 0.732031px;" d="M 235.853 213.275 C 235.366 214.932 237.966 218.841 239.837 219.338 C 241.004 219.647 243.053 219.298 243.553 218.75 C 244.251 217.985 245.382 216.617 245.759 215.511 C 246.24 214.095 245.232 212.317 245.055 211.399 C 244.788 210.024 240.936 204.629 239.481 202.785 C 238.707 201.805 239.01 205.656 238.97 207.023 C 238.931 208.379 238.844 209.693 238.346 210.767 C 237.895 211.742 236.018 212.716 235.853 213.275 Z" transform="matrix(-1, 0, 0, -1, 481.681183, 422.080887)">
          <title>left_claw_talon_top</title>
        </path>
        <path style="stroke: rgb(0, 0, 0); fill: url(#gradient-17); stroke-width: 0.732031px;" d="M 228.016 221.135 C 227.719 223.038 229.494 223.654 231.039 223.786 C 232.383 223.9 233.703 223.877 234.374 223.087 C 235.061 222.278 235.223 220.748 235.055 219.702 C 234.863 218.517 234.416 216.569 233.868 215.832 C 233.195 214.929 230.333 211.549 229.709 211.282 C 227.983 210.543 229.319 213.599 229.586 214.639 C 230.023 216.35 229.933 216.598 229.776 217.667 C 229.595 218.9 228.284 219.415 228.016 221.135 Z" transform="matrix(-1, 0, 0, -1, 463.099411, 435.004059)">
          <title>left_claw_talon_out</title>
        </path>
        <path style="stroke: rgb(0, 0, 0); fill: url(#gradient-19); stroke-width: 0.732031px;" d="M 247.499 219.257 C 247.762 220.054 247.564 221.249 249.366 221.704 C 250.091 221.887 251.424 221.813 252.409 221.341 C 253.249 220.938 253.643 220.411 254.352 218.78 C 255.062 217.149 254.697 216.795 254.788 215.625 C 254.893 214.278 255.108 212.315 254.315 212.148 C 253.591 211.996 252.053 214.978 251.367 215.341 C 250.386 215.861 249.246 214.832 248.582 215.946 C 247.854 217.166 247.183 218.3 247.499 219.257 Z" transform="matrix(-1, 0, 0, -1, 502.314484, 433.938522)">
          <title>left_claw_talon_in</title>
        </path>
        <path style="stroke: rgb(0, 0, 0); fill: url(#gradient-20); stroke-width: 0.732031px;" d="M 241.373 233.883 C 242.274 235.768 242.311 240.442 243.205 240.579 C 244.236 240.739 245.813 235.999 246.178 234.52 C 246.517 233.134 246.749 230.713 246.104 229.253 C 245.54 227.971 244.754 226.929 242.411 227.066 C 240.797 227.159 239.56 228.415 239.528 229.598 C 239.488 231.049 240.604 232.277 241.373 233.883 Z" transform="matrix(-1, 0, 0, -1, 486.039276, 467.63681)">
          <title>left_claw_talon_bot</title>
        </path>
      </g>
      <g transform="matrix(-1, 0, 0, 1, 622.5625, 6.972078)">
        <title>right_claw</title>
        <path style="stroke: rgb(0, 0, 0); fill: url(#gradient-22);" d="M 242.092 207.055 C 240.811 205.948 237.589 205.974 237.183 207.482 C 236.922 208.444 235.588 209.208 236.031 211.381 C 236.513 213.75 236.686 215.574 236.306 217.273 C 236.04 218.469 233.923 220.362 232.806 221.484 C 231.486 222.811 231.504 225.859 230.441 227.986 C 230.287 228.291 229.115 231.324 229.538 231.747 C 230.061 232.268 230.78 233.546 232.381 233.364 C 233 233.295 234.991 227.256 235.865 226.139 C 236.636 225.152 237.403 223.05 238.533 223.332 C 239.808 223.651 239.533 226.362 239.61 227.499 C 239.926 232.26 239.067 238.121 240.244 238.6 C 242.098 239.353 244.632 241.173 246.214 238.615 C 246.672 237.878 242.855 222.614 244.811 222.594 C 247.192 222.572 248.198 225.419 249.061 227.234 C 249.949 229.1 250.929 233.438 253.589 231.668 C 255.855 230.162 252.42 220.847 250.03 219.432 C 249.648 219.206 247.453 218.215 245.146 216.715 C 242.589 215.053 244.087 208.778 242.092 207.055 Z" transform="matrix(-1, 0, 0, -1, 483.776367, 446.213928)">
          <title>right_claw_stem</title>
        </path>
        <path style="stroke: rgb(0, 0, 0); stroke-width: 0.732031px; fill: url(#gradient-23);" d="M 235.853 213.275 C 235.366 214.932 237.966 218.841 239.837 219.338 C 241.004 219.647 243.053 219.298 243.553 218.75 C 244.251 217.985 245.382 216.617 245.759 215.511 C 246.24 214.095 245.232 212.317 245.055 211.399 C 244.788 210.024 240.936 204.629 239.481 202.785 C 238.707 201.805 239.01 205.656 238.97 207.023 C 238.931 208.379 238.844 209.693 238.346 210.767 C 237.895 211.742 236.018 212.716 235.853 213.275 Z" transform="matrix(-1, 0, 0, -1, 481.681183, 422.080887)">
          <title>right_claw_talon_top</title>
        </path>
        <path style="stroke: rgb(0, 0, 0); stroke-width: 0.732031px; fill: url(#gradient-24);" d="M 228.016 221.135 C 227.719 223.038 229.494 223.654 231.039 223.786 C 232.383 223.9 233.703 223.877 234.374 223.087 C 235.061 222.278 235.223 220.748 235.055 219.702 C 234.863 218.517 234.416 216.569 233.868 215.832 C 233.195 214.929 230.333 211.549 229.709 211.282 C 227.983 210.543 229.319 213.599 229.586 214.639 C 230.023 216.35 229.933 216.598 229.776 217.667 C 229.595 218.9 228.284 219.415 228.016 221.135 Z" transform="matrix(-1, 0, 0, -1, 463.099411, 435.004059)">
          <title>right_claw_talon_out</title>
        </path>
        <path style="stroke: rgb(0, 0, 0); stroke-width: 0.732031px; fill: url(#gradient-25);" d="M 247.499 219.257 C 247.762 220.054 247.564 221.249 249.366 221.704 C 250.091 221.887 251.424 221.813 252.409 221.341 C 253.249 220.938 253.643 220.411 254.352 218.78 C 255.062 217.149 254.697 216.795 254.788 215.625 C 254.893 214.278 255.108 212.315 254.315 212.148 C 253.591 211.996 252.053 214.978 251.367 215.341 C 250.386 215.861 249.246 214.832 248.582 215.946 C 247.854 217.166 247.183 218.3 247.499 219.257 Z" transform="matrix(-1, 0, 0, -1, 502.314484, 433.938522)">
          <title>right_claw_talon_in</title>
        </path>
        <path style="stroke: rgb(0, 0, 0); stroke-width: 0.732031px; fill: url(#gradient-26);" d="M 241.373 233.883 C 242.274 235.768 242.311 240.442 243.205 240.579 C 244.236 240.739 245.813 235.999 246.178 234.52 C 246.517 233.134 246.749 230.713 246.104 229.253 C 245.54 227.971 244.754 226.929 242.411 227.066 C 240.797 227.159 239.56 228.415 239.528 229.598 C 239.488 231.049 240.604 232.277 241.373 233.883 Z" transform="matrix(-1, 0, 0, -1, 486.039276, 467.63681)">
          <title>right_claw_talon_bot</title>
        </path>
      </g>
    </g>
  </g>
</svg>